<?xml version="1.0" encoding="UTF-8"?>
<svg version="1.1" xmlns="http://www.w3.org/2000/svg" width="319" height="315">
<path d="M0 0 C1.1152858 -0.03542908 2.23057159 -0.07085815 3.37965393 -0.10736084 C7.83422348 -0.21481671 12.28879173 -0.30381373 16.74427128 -0.36397934 C20.12438483 -0.4100691 23.50101044 -0.47720875 26.87939453 -0.59667969 C30.77593574 -0.72461513 34.66785241 -0.78019429 38.56616211 -0.82128906 C39.76854019 -0.87492615 40.97091827 -0.92856323 42.20973206 -0.98382568 C47.29047058 -0.97311855 50.47592086 -0.94759872 54.26852417 2.64332581 C56.32842724 5.443782 58.08193231 8.25776909 59.78100586 11.28808594 C60.81469386 12.89610753 61.85490116 14.49998835 62.90600586 16.09667969 C63.86739696 17.63774507 64.82571772 19.18072999 65.78100586 20.72558594 C66.81804967 22.37707781 67.85580997 24.02811998 68.89428711 25.67871094 C70.25341209 27.84516236 71.61076214 30.01235204 72.9543457 32.18847656 C73.94632181 33.79213309 74.95679219 35.38430774 75.96850586 36.97558594 C76.49831055 37.82507812 77.02811523 38.67457031 77.57397461 39.54980469 C83.95478096 47.46652194 92.14923223 52.67476679 100.78100586 57.85058594 C121.47868974 70.33922603 121.47868974 70.33922603 124.78100586 77.28808594 C125.16918945 80.33081055 125.16918945 80.33081055 125.17944336 83.69042969 C125.18331055 84.91052734 125.18717773 86.130625 125.19116211 87.38769531 C125.17375977 89.28745117 125.17375977 89.28745117 125.15600586 91.22558594 C125.16760742 92.48822266 125.17920898 93.75085938 125.19116211 95.05175781 C125.18729492 96.27314453 125.18342773 97.49453125 125.17944336 98.75292969 C125.17605957 99.86273193 125.17267578 100.97253418 125.16918945 102.1159668 C124.38269162 108.54298966 121.3570794 112.05246808 116.58178711 116.18261719 C109.45033756 122.4904985 102.73566134 129.18207691 96.015625 135.9230957 C93.95743429 137.98668655 91.89389606 140.04482269 89.82983398 142.10253906 C88.49422652 143.43880683 87.15892902 144.77538451 85.82397461 146.11230469 C85.2196611 146.71459396 84.6153476 147.31688324 83.99272156 147.93742371 C77.84253703 154.12095354 72.27077618 160.39303491 67.46536255 167.68267822 C58.75825365 180.5039908 47.36346276 195.14224942 31.36584473 198.29272461 C7.67570767 201.97380554 -17.47077141 199.43394128 -41.21899414 197.28808594 C-40.46458808 192.40497462 -38.47983311 189.93169598 -35.09399414 186.47558594 C-34.08143321 185.41128238 -33.06971333 184.34617801 -32.05883789 183.28027344 C-31.56754395 182.7669043 -31.07625 182.25353516 -30.57006836 181.72460938 C-28.86121444 179.90767832 -27.25756938 178.01266141 -25.65649414 176.10058594 C-22.45826171 172.42299314 -18.93078826 169.24585427 -15.27758789 166.02636719 C-10.64865171 161.9209883 -6.18735521 157.63269495 -1.69262695 153.38183594 C2.25707373 149.65088252 6.23042882 145.95139637 10.25024414 142.29614258 C14.79631607 138.15561083 19.310536 134.04084666 23.16748047 129.23120117 C24.78100586 127.28808594 24.78100586 127.28808594 26.34643555 125.80688477 C32.7625282 119.05700108 32.19211648 109.97616981 32.09350586 101.22558594 C32.08957825 100.38026306 32.08565063 99.53494019 32.081604 98.66400146 C31.86686757 87.17900434 30.01442543 79.09147115 21.81298828 70.7980957 C17.88842449 67.11799269 13.73993698 63.74845667 9.4753418 60.46875 C6.41860656 57.99477763 3.94376432 55.33781422 1.48071289 52.28564453 C-0.08864583 50.31701346 -0.08864583 50.31701346 -1.72602844 49.06813049 C-4.23209067 46.95147424 -5.95927293 45.35637938 -6.74993896 42.10418701 C-6.92847717 39.49330359 -6.92039749 36.94680548 -6.84008789 34.33105469 C-6.83396988 33.38748611 -6.82785187 32.44391754 -6.82154846 31.47175598 C-6.7946962 28.47192828 -6.72554732 25.47470736 -6.65649414 22.47558594 C-6.63496262 20.43980496 -6.61605376 18.40399444 -6.59985352 16.36816406 C-6.41615837 0.20139864 -6.41615837 0.20139864 0 0 Z " fill="#2E3192" transform="translate(193.218994140625,-0.2880859375)"/>
<path d="M0 0 C-0.58344715 3.13213419 -1.43715026 4.8311822 -3.62304688 7.13476562 C-4.46639587 8.0314093 -4.46639587 8.0314093 -5.32678223 8.94616699 C-5.95113159 9.59299438 -6.57548096 10.23982178 -7.21875 10.90625 C-7.87822632 11.59916138 -8.53770264 12.29207275 -9.21716309 13.00598145 C-18.47391754 22.67112993 -28.00293286 32.07227862 -37.5 41.5 C-41.22188867 45.1947705 -44.93996935 48.89333862 -48.65625 52.59375 C-49.90952087 53.83457336 -49.90952087 53.83457336 -51.18811035 55.10046387 C-55.47473108 59.3692046 -59.55545219 63.72481449 -63.49160767 68.31784058 C-65.30217239 70.33698271 -67.31025609 72.01760657 -69.40234375 73.73828125 C-72.69566834 76.9982195 -73.56087506 79.1703127 -73.81640625 83.79296875 C-73.77577669 85.92577185 -73.68948811 88.05809308 -73.5625 90.1875 C-73.50026245 91.85752075 -73.50026245 91.85752075 -73.43676758 93.5612793 C-73.35031245 95.74566948 -73.24798046 97.9295031 -73.12792969 100.11230469 C-73.02355449 102.46831572 -73.02102516 104.74911469 -73.1328125 107.1015625 C-73.24471353 113.67175152 -71.75272152 116.95249536 -67.375 121.875 C-65.8589574 123.4012568 -64.31307392 124.88564829 -62.74316406 126.35644531 C-60.17839505 128.77465609 -57.70286839 131.27916488 -55.21606445 133.77709961 C-53.91380462 135.08388736 -52.60769123 136.3868471 -51.29760742 137.68579102 C-47.43350295 141.51990632 -43.70545622 145.41319773 -40.19921875 149.58203125 C-38.91444826 151.14107951 -38.91444826 151.14107951 -37 153 C-36.75949097 154.91091919 -36.75949097 154.91091919 -36.77294922 157.26611328 C-36.77317581 158.58725632 -36.77317581 158.58725632 -36.77340698 159.93508911 C-36.78372955 160.88721283 -36.79405212 161.83933655 -36.8046875 162.8203125 C-36.8075174 163.79410858 -36.81034729 164.76790466 -36.81326294 165.77120972 C-36.82448087 168.88926349 -36.8495883 172.00703268 -36.875 175.125 C-36.88502772 177.23567294 -36.89415393 179.34635038 -36.90234375 181.45703125 C-36.92442542 186.63811835 -36.95791871 191.81903885 -37 197 C-83.52605705 203.99692011 -83.52605705 203.99692011 -96.74353027 195.16723633 C-106.72479126 185.96222279 -112.46038465 172.77432103 -118.53425598 160.8502655 C-122.89458268 152.53590437 -127.48239587 147.77375755 -135.625 143.0625 C-136.59381104 142.49128418 -137.56262207 141.92006836 -138.56079102 141.33154297 C-142.25810119 139.2770951 -146.0170651 137.44203681 -149.87402344 135.70751953 C-162.47775763 129.94364315 -162.47775763 129.94364315 -166 124 C-167.50122376 118.3006304 -167.83760626 112.81190145 -167.875 106.9375 C-167.89820313 105.8269223 -167.89820313 105.8269223 -167.921875 104.69390869 C-167.98289079 96.06756308 -166.93217031 89.77446096 -160.8203125 83.4140625 C-158.92124585 81.55697461 -156.97192815 79.78205017 -155 78 C-153.75410395 76.680968 -152.52216359 75.34843113 -151.3125 73.99609375 C-144.36288488 66.50912134 -137.27425193 59.17247479 -130.0625 51.9375 C-129.28197266 51.15238037 -128.50144531 50.36726074 -127.69726562 49.55834961 C-126.94251953 48.80561768 -126.18777344 48.05288574 -125.41015625 47.27734375 C-124.75152588 46.61984131 -124.09289551 45.96233887 -123.41430664 45.28491211 C-122.03070086 43.97546055 -120.62270158 42.68873995 -119.1532135 41.47645569 C-114.85488301 37.90560414 -111.6423674 34.3789996 -108.57106018 29.71870422 C-81.89387923 -10.24231141 -42.77843744 -3.86539825 0 0 Z " fill="#009444" transform="translate(168,117)"/>
<path d="M0 0 C1.17701477 -0.02429077 1.17701477 -0.02429077 2.37780762 -0.04907227 C13.12644135 -0.11833672 20.11252046 1.28400734 28.11914062 8.82104492 C32.18906144 13.25543063 35.89526183 17.87142342 39.5 22.6875 C46.1508278 30.95744318 53.97005082 38.23328306 61.5 45.6875 C76.79243761 60.82613436 76.79243761 60.82613436 81.90673828 66.8671875 C85.22343089 70.65653167 88.85844805 74.14831753 92.4375 77.6875 C93.21673828 78.46222656 93.99597656 79.23695312 94.79882812 80.03515625 C96.6969242 81.92160757 98.59733149 83.80566245 100.5 85.6875 C100.17 86.6775 99.84 87.6675 99.5 88.6875 C98.25100418 88.66085266 97.00200836 88.63420532 95.71516418 88.60675049 C83.90262678 88.36272113 72.09060535 88.18324317 60.27611256 88.06575394 C54.20293862 88.00331656 48.13181083 87.9187381 42.05981445 87.78222656 C36.19166383 87.65113457 30.3254715 87.57994577 24.45596886 87.54897308 C22.22515742 87.52692369 19.99444454 87.48386319 17.76447487 87.41873932 C3.70441961 86.73151805 3.70441961 86.73151805 -8.45734882 92.78091049 C-10.50475281 94.79302383 -12.378759 96.88571187 -14.18483925 99.11593246 C-16.40037761 101.76341732 -18.91236446 104.07641341 -21.40625 106.4609375 C-23.27343207 108.32552627 -25.13804092 110.19269559 -27 112.0625 C-27.95817059 113.01709047 -28.91650389 113.97151763 -29.875 114.92578125 C-30.7928125 115.84488281 -31.710625 116.76398438 -32.65625 117.7109375 C-33.46900391 118.52481934 -34.28175781 119.33870117 -35.11914062 120.17724609 C-37.6330534 122.67828844 -37.6330534 122.67828844 -39.64331055 125.96191406 C-43.26738815 129.41967001 -45.22531197 129.3696689 -50.07991028 129.36727905 C-51.0602977 129.33631134 -52.04068512 129.30534363 -53.05078125 129.2734375 C-54.06472458 129.26494781 -55.07866791 129.25645813 -56.12333679 129.24771118 C-59.35414976 129.21418868 -62.58244461 129.13890836 -65.8125 129.0625 C-68.00582327 129.03239905 -70.19918575 129.00502348 -72.39257812 128.98046875 C-77.76257439 128.91440184 -83.1311073 128.81406549 -88.5 128.6875 C-89.37512863 119.22654223 -89.67914452 109.9563803 -89.52392578 100.46484375 C-89.49780972 97.43324872 -89.54529229 94.40633648 -89.58984375 91.375 C-89.58305106 89.22915806 -89.57396622 87.08332206 -89.5625 84.9375 C-89.59037598 83.9259082 -89.61825195 82.91431641 -89.64697266 81.87207031 C-89.57849903 77.81924534 -89.48105018 74.88041064 -86.84716797 71.67773438 C-84.49697974 69.77042748 -82.10784721 68.22403692 -79.5 66.6875 C-78.56164307 66.11547852 -77.62328613 65.54345703 -76.65649414 64.95410156 C-72.60502533 62.54340933 -68.49349736 60.24525291 -64.3828125 57.9375 C-46.15818051 47.5499235 -37.14682888 34.29007583 -26.76513672 16.44580078 C-26.15557129 15.40278809 -25.54600586 14.35977539 -24.91796875 13.28515625 C-24.37938232 12.35195557 -23.8407959 11.41875488 -23.28588867 10.45727539 C-16.90567731 0.56206036 -11.05251948 0.15427701 0 0 Z " fill="#ED1C24" transform="translate(89.5,-1.6875)"/>
<path d="M0 0 C2.82526483 0.41903673 5.62672613 0.89591396 8.4375 1.40625 C8.8356592 8.64486272 9.15241588 15.88384023 9.4140625 23.12866211 C9.51240937 25.59008364 9.62904749 28.05084758 9.76464844 30.51049805 C10.86344737 50.77677828 10.86344737 50.77677828 7.58276367 56.82641602 C4.99855094 59.23179049 2.5633862 60.77947578 -0.5625 62.40625 C-2.36745314 63.62012164 -4.16826337 64.84017661 -5.96484375 66.06640625 C-7.80436207 67.20947468 -9.64952136 68.34351141 -11.5 69.46875 C-18.46364581 73.78863823 -25.24079625 78.14209775 -31.734375 83.1484375 C-33.5625 84.40625 -33.5625 84.40625 -35.5625 84.40625 C-35.79735107 85.08187988 -36.03220215 85.75750977 -36.27416992 86.45361328 C-37.87057423 90.11230453 -39.97463011 93.33562306 -42.17578125 96.6484375 C-42.62720993 97.33503448 -43.07863861 98.02163147 -43.54374695 98.72903442 C-44.49736797 100.17766977 -45.45312781 101.62489914 -46.41088867 103.07080078 C-47.86376415 105.26428663 -49.31039128 107.46178375 -50.75585938 109.66015625 C-51.68713565 111.07315687 -52.61876504 112.48592484 -53.55078125 113.8984375 C-53.97805008 114.54658417 -54.40531891 115.19473083 -54.84553528 115.86251831 C-56.07485598 117.71717786 -57.31457805 119.56405975 -58.5625 121.40625 C-59.00638062 122.06326401 -59.45026123 122.72027802 -59.90759277 123.39720154 C-63.29506707 128.29582909 -63.29506707 128.29582909 -65.8046875 129.33203125 C-66.71476562 129.35652344 -67.62484375 129.38101563 -68.5625 129.40625 C-69.2215332 129.43509277 -69.88056641 129.46393555 -70.55957031 129.49365234 C-72.93731146 129.57838826 -75.30831743 129.59186774 -77.6875 129.59375 C-78.47898437 129.60599609 -79.27046875 129.61824219 -80.0859375 129.63085938 C-89.79132387 129.65434015 -97.79252139 129.15002866 -104.99691772 122.13604736 C-105.70385773 121.40303406 -106.41079773 120.67002075 -107.13916016 119.91479492 C-107.9194458 119.14224869 -108.69973145 118.36970245 -109.50366211 117.57374573 C-112.05870932 115.03273983 -114.58010326 112.46102248 -117.1015625 109.88671875 C-118.8753834 108.10625866 -120.65091322 106.32749961 -122.42807007 104.55036926 C-126.13844798 100.83071808 -129.83407571 97.09706362 -133.51708984 93.3503418 C-137.77124338 89.02283045 -142.04768803 84.7184287 -146.33775103 80.42653197 C-150.47560182 76.28664811 -154.60156733 72.13514444 -158.72138596 67.97731972 C-160.47105319 66.21240251 -162.22302222 64.44976417 -163.977314 62.68944359 C-166.42183617 60.23156348 -168.85262981 57.76090455 -171.27978516 55.28588867 C-172.00696747 54.55894806 -172.73414978 53.83200745 -173.48336792 53.08303833 C-174.14197815 52.405923 -174.80058838 51.72880768 -175.47915649 51.03117371 C-176.05389521 50.4484328 -176.62863392 49.86569189 -177.22078896 49.26529217 C-178.84418526 47.01595376 -179.19434408 45.12999117 -179.5625 42.40625 C-178.36093262 42.48254639 -177.15936523 42.55884277 -175.92138672 42.63745117 C-160.81035491 43.56217106 -145.69908009 44.1252751 -130.5625 44.40625 C-129.36675606 44.42861347 -128.17101212 44.45097694 -126.93903351 44.4740181 C-92.44506003 46.30324709 -92.44506003 46.30324709 -62.3984375 32.43359375 C-57.25394916 27.285745 -53.06841778 21.55433607 -48.8125 15.671875 C-47.49430744 13.86831888 -46.16896315 12.06996444 -44.8359375 10.27734375 C-44.2050824 9.42808319 -43.57422729 8.57882263 -42.92425537 7.7038269 C-32.5904378 -4.85855422 -14.60236111 -1.80160293 0 0 Z " fill="#F9ED32" transform="translate(309.5625,185.59375)"/>
</svg>
